HIERARCHY
ROOT Hips
{
  OFFSET 5.80788e-005 67.184 3.4734
  CHANNELS 6 Xposition Yposition Zposition Zrotation Xrotation Yrotation
  JOINT Chest
  {
    OFFSET 0 8.7983 -4.7612
    CHANNELS 3 Zrotation Xrotation Yrotation
    JOINT Chest2
    {
      OFFSET 0 8.0291 0.4195
      CHANNELS 3 Zrotation Xrotation Yrotation
      JOINT Chest3
      {
        OFFSET 0 9.9351 -2.2114
        CHANNELS 3 Zrotation Xrotation Yrotation
        JOINT Neck
        {
          OFFSET 0 22.3885 -0.4656
          CHANNELS 3 Zrotation Xrotation Yrotation
          JOINT Head
          {
            OFFSET -0.0001 12.643 3.4389
            CHANNELS 3 Zrotation Xrotation Yrotation
            End Site
            {
              OFFSET 0.0001 17.6655 0.5274
            }
          }
        }
        JOINT LeftCollar
        {
          OFFSET 2.2603 21.606 7.4023
          CHANNELS 3 Zrotation Xrotation Yrotation
          JOINT LeftShoulder
          {
            OFFSET 13.5163 -1.1332 -5.0146
            CHANNELS 3 Zrotation Xrotation Yrotation
            JOINT LeftElbow
            {
              OFFSET -0.0995 -28.05 -0.2431
              CHANNELS 3 Zrotation Xrotation Yrotation
              JOINT LeftWrist
              {
                OFFSET 0.0679 -23.3996 -0.1402
                CHANNELS 3 Zrotation Xrotation Yrotation
                JOINT LeftFinger1
                {
                  OFFSET 0.7932 -9.069 2.5189
                  CHANNELS 3 Zrotation Xrotation Yrotation
                  JOINT LeftFinger11
                  {
                    OFFSET -0.8272 -3.3923 0.5977
                    CHANNELS 3 Zrotation Xrotation Yrotation
                    JOINT LeftFinger12
                    {
                      OFFSET -0.5649 -2.3158 0.4082
                      CHANNELS 3 Zrotation Xrotation Yrotation
                      End Site
                      {
                        OFFSET -0.4919 -1.6479 0.2673
                      }
                    }
                  }
                }
                JOINT LeftFinger2
                {
                  OFFSET 0.9159 -9.2044 0.2193
                  CHANNELS 3 Zrotation Xrotation Yrotation
                  JOINT LeftFinger21
                  {
                    OFFSET 0.0117 -4.1944 -0.0248
                    CHANNELS 3 Zrotation Xrotation Yrotation
                    JOINT LeftFinger22
                    {
                      OFFSET 0.0071 -2.3249 -0.0142
                      CHANNELS 3 Zrotation Xrotation Yrotation
                      End Site
                      {
                        OFFSET -0.1475 -2.0882 0.0028
                      }
                    }
                  }
                }
                JOINT LeftFinger3
                {
                  OFFSET 0.6113 -8.7231 -2.0637
                  CHANNELS 3 Zrotation Xrotation Yrotation
                  JOINT LeftFinger31
                  {
                    OFFSET -0.1927 -3.8059 -0.2383
                    CHANNELS 3 Zrotation Xrotation Yrotation
                    JOINT LeftFinger32
                    {
                      OFFSET -0.1091 -2.1688 -0.1362
                      CHANNELS 3 Zrotation Xrotation Yrotation
                      End Site
                      {
                        OFFSET -0.2358 -1.9176 -0.0906
                      }
                    }
                  }
                }
                JOINT LeftFinger4
                {
                  OFFSET -0.6151 -8.0947 -3.5641
                  CHANNELS 3 Zrotation Xrotation Yrotation
                  JOINT LeftFinger41
                  {
                    OFFSET -0.4882 -2.341 -0.6462
                    CHANNELS 3 Zrotation Xrotation Yrotation
                    JOINT LeftFinger42
                    {
                      OFFSET -0.3575 -1.7167 -0.4742
                      CHANNELS 3 Zrotation Xrotation Yrotation
                      End Site
                      {
                        OFFSET -0.4187 -1.5237 -0.3496
                      }
                    }
                  }
                }
                JOINT LeftFinger0
                {
                  OFFSET -1.42 -1.8761 1.4223
                  CHANNELS 3 Zrotation Xrotation Yrotation
                  JOINT LeftFinger01
                  {
                    OFFSET -1.1471 -3.4929 2.6334
                    CHANNELS 3 Zrotation Xrotation Yrotation
                    JOINT LeftFinger02
                    {
                      OFFSET -0.823 -2.3 1.6571
                      CHANNELS 3 Zrotation Xrotation Yrotation
                      End Site
                      {
                        OFFSET -0.5822 -1.6914 1.1582
                      }
                    }
                  }
                }
              }
            }
          }
        }
        JOINT RightCollar
        {
          OFFSET -2.2603 21.606 7.4023
          CHANNELS 3 Zrotation Xrotation Yrotation
          JOINT RightShoulder
          {
            OFFSET -13.5187 -1.1334 -5.0155
            CHANNELS 3 Zrotation Xrotation Yrotation
            JOINT RightElbow
            {
              OFFSET 0.0994 -28.0499 -0.2431
              CHANNELS 3 Zrotation Xrotation Yrotation
              JOINT RightWrist
              {
                OFFSET -0.0679 -23.3996 -0.1402
                CHANNELS 3 Zrotation Xrotation Yrotation
                JOINT RightFinger1
                {
                  OFFSET -0.7932 -9.0691 2.5189
                  CHANNELS 3 Zrotation Xrotation Yrotation
                  JOINT RightFinger11
                  {
                    OFFSET 0.8272 -3.3923 0.5977
                    CHANNELS 3 Zrotation Xrotation Yrotation
                    JOINT RightFinger12
                    {
                      OFFSET 0.565 -2.3158 0.4082
                      CHANNELS 3 Zrotation Xrotation Yrotation
                      End Site
                      {
                        OFFSET 0.4919 -1.6479 0.2673
                      }
                    }
                  }
                }
                JOINT RightFinger2
                {
                  OFFSET -0.916 -9.2044 0.2193
                  CHANNELS 3 Zrotation Xrotation Yrotation
                  JOINT RightFinger21
                  {
                    OFFSET -0.0117 -4.1944 -0.0248
                    CHANNELS 3 Zrotation Xrotation Yrotation
                    JOINT RightFinger22
                    {
                      OFFSET -0.0071 -2.3249 -0.0142
                      CHANNELS 3 Zrotation Xrotation Yrotation
                      End Site
                      {
                        OFFSET 0.1475 -2.0882 0.0028
                      }
                    }
                  }
                }
                JOINT RightFinger3
                {
                  OFFSET -0.6113 -8.7231 -2.0637
                  CHANNELS 3 Zrotation Xrotation Yrotation
                  JOINT RightFinger31
                  {
                    OFFSET 0.1927 -3.8059 -0.2383
                    CHANNELS 3 Zrotation Xrotation Yrotation
                    JOINT RightFinger32
                    {
                      OFFSET 0.1091 -2.1688 -0.1362
                      CHANNELS 3 Zrotation Xrotation Yrotation
                      End Site
                      {
                        OFFSET 0.2358 -1.9176 -0.0906
                      }
                    }
                  }
                }
                JOINT RightFinger4
                {
                  OFFSET 0.6151 -8.0947 -3.564
                  CHANNELS 3 Zrotation Xrotation Yrotation
                  JOINT RightFinger41
                  {
                    OFFSET 0.4882 -2.341 -0.6462
                    CHANNELS 3 Zrotation Xrotation Yrotation
                    JOINT RightFinger42
                    {
                      OFFSET 0.3574 -1.7166 -0.4742
                      CHANNELS 3 Zrotation Xrotation Yrotation
                      End Site
                      {
                        OFFSET 0.4187 -1.5237 -0.3496
                      }
                    }
                  }
                }
                JOINT RightFinger0
                {
                  OFFSET 1.4199 -1.8761 1.4221
                  CHANNELS 3 Zrotation Xrotation Yrotation
                  JOINT RightFinger01
                  {
                    OFFSET 1.1472 -3.4929 2.6336
                    CHANNELS 3 Zrotation Xrotation Yrotation
                    JOINT RightFinger02
                    {
                      OFFSET 0.8229 -2.3 1.6571
                      CHANNELS 3 Zrotation Xrotation Yrotation
                      End Site
                      {
                        OFFSET 0.5822 -1.6914 1.1582
                      }
                    }
                  }
                }
              }
            }
          }
        }
      }
    }
  }
  JOINT RightHip
  {
    OFFSET -9.412 3.9771 -0.7758
    CHANNELS 3 Zrotation Xrotation Yrotation
    JOINT RightKnee
    {
      OFFSET -0.7531 -40.938 0
      CHANNELS 3 Zrotation Xrotation Yrotation
      JOINT RightAnkle
      {
        OFFSET 0 -40.1986 0
        CHANNELS 3 Zrotation Xrotation Yrotation
        JOINT RightToe
        {
          OFFSET 0 -4.4182 9.239
          CHANNELS 3 Zrotation Xrotation Yrotation
          End Site
          {
            OFFSET 0 0 6.1981
          }
        }
      }
    }
  }
  JOINT LeftHip
  {
    OFFSET 9.4119 3.9773 -0.7758
    CHANNELS 3 Zrotation Xrotation Yrotation
    JOINT LeftKnee
    {
      OFFSET 0.7532 -40.9383 0
      CHANNELS 3 Zrotation Xrotation Yrotation
      JOINT LeftAnkle
      {
        OFFSET 0 -40.1986 0
        CHANNELS 3 Zrotation Xrotation Yrotation
        JOINT LeftToe
        {
          OFFSET 0 -4.4182 9.239
          CHANNELS 3 Zrotation Xrotation Yrotation
          End Site
          {
            OFFSET 0 0 6.1981
          }
        }
      }
    }
  }
}
MOTION
Frames:	5
Frame Time:	0.0333333
5.80788e-005 67.184 3.4734 0 0 -0 0 0 -0 0 0 -0 0 0 -0 0 0 -0 0 0 -0 0 0 -12.5014 88.1196 14.2451 10.6914 -0.00160068 -0.00239207 0.000740045 -8.4365e-005 7.00714e-005 -9.52055e-007 9.93923e-017 -1.98785e-016 -1.59028e-015 9.93923e-017 -5.96354e-016 -1.59028e-015 -9.93923e-017 -5.96354e-016 -1.59028e-015 9.93923e-017 -1.98785e-016 -1.59028e-015 -0.0128176 0.00232552 8.52707e-005 9.93923e-017 5.96354e-016 -0 9.93923e-017 -1.98785e-016 -1.59028e-015 -0.0160551 0.00299681 0.000857156 -2.48481e-016 0 3.18055e-015 9.93923e-017 -1.98785e-016 -1.59028e-015 -0.0125865 0.0031206 0.00282719 0 1.98785e-016 -0 9.93923e-017 -1.98785e-016 -1.59028e-015 9.93923e-017 -5.96354e-016 -1.59028e-015 -9.93923e-017 -5.96354e-016 -1.59028e-015 -0.865644 0.16582 7.03859 -88.0329 10.2057 -10.5567 0.0015593 -0.00248883 -0.000788628 7.87605e-005 4.10553e-005 1.24965e-005 -3.97569e-016 -7.95139e-016 3.18055e-015 -1.98785e-016 -3.97569e-016 3.18055e-015 -1.98785e-016 0 3.18055e-015 -3.97569e-016 -7.95139e-016 3.18055e-015 0.0129473 0.00231697 -8.70038e-005 9.93923e-017 -7.95139e-016 1.59028e-015 -3.97569e-016 -7.95139e-016 3.18055e-015 0.0163314 0.00303369 -0.000872333 3.97569e-016 7.95139e-016 -3.18055e-015 -3.97569e-016 -7.95139e-016 3.18055e-015 0.0145763 0.00367772 -0.00326275 9.93923e-017 -3.97569e-016 -0 -3.97569e-016 -7.95139e-016 3.18055e-015 -1.98785e-016 -3.97569e-016 3.18055e-015 -1.98785e-016 0 3.18055e-015 3.42485 1.36937 -0.0640303 0.000136572 0.69354 0.00145564 -3.42573 -2.06297 -0.0607933 -3.19502e-024 0 -1.48106e-024 -3.42498 1.36123 0.0639712 -6.769e-005 0.712612 -0.0012277 3.42582 -2.07388 0.0612819 2.55305e-023 0 -2.31416e-026 
-7.38269 14.249 41.0877 -180 68.9258 180 -0.115865 -5.9257 -0.45762 -0.281889 -11.8503 -0.934929 -0.28189 -11.8503 -0.934931 -1.4356e-006 -33.2075 -2.11398e-006 -4.40823e-007 -16.1336 -8.02465e-008 -6.26031 -8.70151 -39.4305 95.5353 -7.19532 9.57907 48.3307 -46.1316 28.7659 10.0434 -0.61092 8.90069 5.70025e-007 -5.4953e-006 -9.81687e-006 3.18055e-015 1.21756e-015 1.4474e-015 3.18055e-015 3.70236e-015 -2.29224e-015 5.70025e-007 -5.4953e-006 -9.81687e-006 -0.0128642 0.00233627 9.15595e-005 3.18055e-015 9.93923e-017 -2.4289e-015 5.70025e-007 -5.4953e-006 -9.81687e-006 -0.0159601 0.0029837 0.000860419 3.18055e-015 -1.2921e-015 1.2424e-016 5.70025e-007 -5.4953e-006 -9.81687e-006 -0.0126152 0.00313235 0.00284791 3.18055e-015 -2.23633e-016 2.98177e-015 5.70025e-007 -5.4953e-006 -9.81687e-006 3.18055e-015 1.21756e-015 1.4474e-015 3.18055e-015 3.70236e-015 -2.29224e-015 -3.56553 11.1337 -3.52353 26.014 36.7287 13.6063 -1.73413 -23.7727 8.61827 -23.7181 -27.7797 -64.0187 9.54166e-015 4.77083e-015 3.18055e-015 9.54166e-015 3.18055e-015 3.18055e-015 6.36111e-015 3.97569e-015 3.57812e-015 9.54166e-015 4.77083e-015 3.18055e-015 0.0129081 0.0023181 -9.35456e-005 3.14491e-031 -2.38542e-015 7.55382e-015 9.54166e-015 4.77083e-015 3.18055e-015 0.0163378 0.00304384 -0.000886847 -3.18055e-015 -1.43125e-014 -1.03368e-014 9.54166e-015 4.77083e-015 3.18055e-015 0.0145616 0.00368063 -0.00326172 -3.18055e-015 -2.38542e-015 -6.75868e-015 9.54166e-015 4.77083e-015 3.18055e-015 9.54166e-015 3.18055e-015 3.18055e-015 6.36111e-015 3.97569e-015 3.57812e-015 -113.099 -35.754 -113.275 -98.8162 80.396 107.704 -32.8605 32.6904 61.859 1.17178e-006 -1.49263e-009 2.36378e-007 113.131 -35.7803 113.259 98.8552 80.4382 -107.755 32.8334 32.7244 -61.8666 -2.35377e-007 -3.80269e-009 -3.55022e-007 
-6.94851 16.235 38.3755 180 77.2185 -180 -0.106612 -4.89137 -0.428668 -0.251491 -9.78177 -0.871302 -0.251492 -9.78179 -0.871304 -9.36941e-007 -32.2237 -1.86027e-006 2.81242e-007 -15.8902 1.09555e-007 -4.70634 -9.396 -38.0567 95.1437 -5.92783 9.6492 44.344 -43.0183 26.3483 10.4025 -0.670743 9.01416 -3.44836e-032 7.95139e-016 2.48481e-015 -0 0 2.08724e-015 -0 0 1.88845e-015 -3.44836e-032 7.95139e-016 2.48481e-015 -0.0127957 0.00232453 9.04608e-005 9.54166e-015 1.59028e-015 -7.95139e-016 -3.44836e-032 7.95139e-016 2.48481e-015 -0.0159587 0.00297268 0.000858098 -6.36111e-015 -7.95139e-016 -1.98785e-015 -3.44836e-032 7.95139e-016 2.48481e-015 -0.0125574 0.00311354 0.00282228 3.18055e-015 3.97569e-016 9.93923e-017 -3.44836e-032 7.95139e-016 2.48481e-015 -0 0 2.08724e-015 -0 0 1.88845e-015 -1.61298 8.51152 -2.6018 18.2301 36.688 8.97876 -0.474915 -25.8672 5.68469 -19.209 -24.8129 -59.756 -3.18055e-015 -1.59028e-015 -3.97569e-015 6.36111e-015 1.59028e-015 7.95139e-016 3.18055e-015 1.59028e-015 -3.18055e-015 -3.18055e-015 -1.59028e-015 -3.97569e-015 0.0129443 0.00232144 -0.000100961 6.36111e-015 6.36111e-015 -0 -3.18055e-015 -1.59028e-015 -3.97569e-015 0.0163069 0.00304099 -0.000879964 3.18055e-015 0 1.98785e-015 -3.18055e-015 -1.59028e-015 -3.97569e-015 0.0146051 0.00367997 -0.00327042 -1.65521e-031 1.59028e-015 5.96354e-015 -3.18055e-015 -1.59028e-015 -3.97569e-015 6.36111e-015 1.59028e-015 7.95139e-016 3.18055e-015 1.59028e-015 -3.18055e-015 -104.965 -39.3643 -109.19 -67.448 81.3088 76.18 -31.3058 31.7873 59.3486 2.95367e-007 -1.14206e-008 3.0745e-007 104.991 -39.4464 109.125 67.3436 81.3469 -76.0864 31.1981 31.8382 -59.2934 -7.54233e-007 -6.59275e-009 4.36884e-007 
-6.94861 15.6948 38.4289 -180 78.8833 180 -0.111288 -4.23154 -0.426295 -0.255293 -8.46213 -0.864408 -0.255293 -8.46214 -0.86441 -7.20384e-007 -33.14 -1.46151e-006 1.50525e-008 -16.5568 1.23305e-007 -3.80337 -10.4362 -38.2681 95.1436 -5.92786 9.64917 43.5181 -42.5067 25.7964 11.3021 -0.74952 9.62569 -0 -3.97569e-016 -0 -1.79315e-032 -7.95139e-016 -1.2921e-015 3.18055e-015 1.19271e-015 -1.09332e-015 -0 -3.97569e-016 -0 -0.0128242 0.00232268 8.58572e-005 -1.81462e-006 2.23218e-006 -6.72645e-006 -0 -3.97569e-016 -0 -0.0161301 0.00299778 0.000856924 -6.36111e-015 -3.97569e-016 -1.78906e-015 -0 -3.97569e-016 -0 -0.0125059 0.00309627 0.00280762 6.36111e-015 -1.59028e-015 4.17448e-015 -0 -3.97569e-016 -0 -1.79315e-032 -7.95139e-016 -1.2921e-015 3.18055e-015 1.19271e-015 -1.09332e-015 0.199031 6.62474 -2.27423 17.0236 38.0138 6.5979 0.519979 -29.2235 3.42644 -16.4111 -23.5598 -59.3542 1.02952e-005 -2.6067e-006 -6.75054e-006 3.18055e-015 -3.18055e-015 -0 -3.08973e-031 3.18055e-015 5.56597e-015 1.02952e-005 -2.6067e-006 -6.75054e-006 0.0129573 0.00232368 -7.71298e-005 6.36111e-015 -2.38542e-015 3.18055e-015 1.02952e-005 -2.6067e-006 -6.75054e-006 0.0163302 0.00304645 -0.000869428 3.31043e-032 2.38542e-015 -7.95139e-016 1.02952e-005 -2.6067e-006 -6.75054e-006 0.0145292 0.00366928 -0.00324445 -3.18055e-015 -1.59028e-014 -5.56597e-015 1.02952e-005 -2.6067e-006 -6.75054e-006 3.18055e-015 -3.18055e-015 -0 -3.08973e-031 3.18055e-015 5.56597e-015 -103.33 -37.9281 -108.137 -66.9653 81.2783 75.6958 -33.5052 30.7388 61.0597 7.84905e-009 -4.80136e-006 -6.19508e-007 103.355 -38.0645 108.03 66.8585 81.3162 -75.6004 33.3249 30.8108 -60.9512 -3.08634e-007 1.1556e-007 8.99297e-007 
-6.94869 15.1565 38.4887 -180 80.5506 180 -0.115966 -3.56266 -0.423539 -0.259127 -7.12428 -0.856808 -0.259129 -7.12429 -0.856811 -1.09178e-005 -34.0569 -1.4969e-005 -1.47551e-006 -17.2236 -6.32465e-007 -2.90011 -11.4808 -38.4637 95.1437 -5.92782 9.64915 42.7053 -41.9893 25.259 12.2031 -0.818638 10.2388 4.68978e-032 7.95139e-016 -3.37934e-015 -1.63053e-006 -1.66363e-006 -6.49529e-008 -1.11313e-006 8.16016e-007 -2.5617e-006 4.68978e-032 7.95139e-016 -3.37934e-015 -0.0128453 0.00232586 7.79278e-005 -2.74432e-006 8.16681e-007 -2.62676e-006 4.68978e-032 7.95139e-016 -3.37934e-015 -0.0160513 0.00299518 0.000852657 6.36111e-015 1.59028e-015 -2.38542e-015 4.68978e-032 7.95139e-016 -3.37934e-015 -0.0126788 0.00313876 0.00283813 -1.04403e-007 2.86064e-006 -3.32591e-006 4.68978e-032 7.95139e-016 -3.37934e-015 -1.63053e-006 -1.66363e-006 -6.49529e-008 -1.11313e-006 8.16016e-007 -2.5617e-006 2.02323 4.74155 -1.88638 15.8585 39.3881 4.19146 1.39433 -32.6188 1.15201 -13.6351 -22.2841 -59.0214 2.97873e-007 4.86038e-006 7.59841e-006 -2.77701e-006 -1.61054e-006 -1.61605e-006 -5.25615e-006 1.53496e-006 4.3663e-006 2.97873e-007 4.86038e-006 7.59841e-006 0.0129654 0.00231631 -9.30675e-005 2.21585e-024 -1.06446e-007 1.19271e-015 2.97873e-007 4.86038e-006 7.59841e-006 0.0163046 0.00302212 -0.000871548 -1.58414e-006 -1.5842e-006 1.19638e-007 2.97873e-007 4.86038e-006 7.59841e-006 0.0146466 0.00368251 -0.00326811 -1.0483e-031 -1.59028e-015 -3.77691e-015 2.97873e-007 4.86038e-006 7.59841e-006 -2.77701e-006 -1.61054e-006 -1.61605e-006 -5.25615e-006 1.53496e-006 4.3663e-006 -101.762 -36.4701 -107.158 -66.4983 81.248 75.2289 -35.6468 29.6334 62.7066 3.06803e-007 1.22859e-007 -9.00431e-007 101.784 -36.6599 107.007 66.3879 81.2857 -75.1305 35.3965 29.7303 -62.548 -1.0573e-006 -7.38601e-006 -4.68302e-007 
